<svg width="3463" height="700" viewBox="0 0 3463 700" fill="none" xmlns="http://www.w3.org/2000/svg">
<path d="M972.225 574.212V120.502H1121.29L1228.26 521.724H1238.64V120.502H1315.77V574.212H1167.33L1060.37 172.99H1049.35V574.212H972.225Z" fill="#F9F5EB"/>
<path d="M1533.54 583.284C1501.54 583.284 1472.92 576.695 1447.65 563.516C1422.38 550.338 1402.47 531.563 1388.03 507.101C1373.54 482.685 1366.32 453.44 1366.32 419.275V408.895C1366.32 374.775 1373.54 345.394 1388.03 320.752C1402.52 296.11 1422.38 277.335 1447.65 264.382C1472.92 251.43 1501.54 244.931 1533.54 244.931C1565.49 244.931 1594.01 251.43 1619.11 264.382C1644.15 277.335 1663.92 296.155 1678.41 320.752C1692.9 345.394 1700.12 374.775 1700.12 408.895V419.275C1700.12 453.395 1692.9 482.685 1678.41 507.101C1663.92 531.518 1644.15 550.338 1619.11 563.516C1594.01 576.695 1565.53 583.284 1533.54 583.284ZM1533.54 517.166C1560.75 517.166 1583 508.41 1600.29 490.899C1617.57 473.388 1626.19 448.881 1626.19 417.334V410.835C1626.19 379.288 1617.53 354.782 1600.29 337.27C1583 319.759 1560.75 311.004 1533.54 311.004C1506.32 311.004 1484.07 319.759 1466.79 337.27C1449.5 354.782 1440.88 379.288 1440.88 410.835V417.334C1440.88 448.881 1449.5 473.388 1466.79 490.899C1484.07 508.456 1506.32 517.166 1533.54 517.166Z" fill="#F9F5EB"/>
<path d="M1753.23 574.208V254.043H1826.48V289.697H1837.49C1843.08 278.91 1852.52 269.297 1865.69 260.858C1878.87 252.418 1896.48 248.221 1918.5 248.221C1941.83 248.221 1960.61 252.959 1974.87 262.482C1989.13 272.005 1999.92 284.1 2007.27 298.768H2017.65C2025.01 284.1 2035.57 271.96 2049.43 262.482C2063.24 253.005 2082.91 248.221 2108.41 248.221C2128.27 248.221 2146.32 252.553 2162.53 261.174C2178.73 269.839 2191.68 282.566 2201.43 299.4C2211.18 316.234 2216.01 337.22 2216.01 362.269V574.208H2141.45V367.459C2141.45 348.865 2136.49 334.738 2126.56 324.99C2116.63 315.286 2102.77 310.412 2085.08 310.412C2065.63 310.412 2050.19 316.776 2038.73 329.548C2027.27 342.32 2021.54 360.554 2021.54 384.338V574.253H1947.65V367.504C1947.65 348.91 1942.69 334.783 1932.76 325.035C1922.83 315.332 1908.98 310.457 1891.28 310.457C1871.38 310.457 1855.86 316.821 1844.62 329.593C1833.38 342.365 1827.78 360.599 1827.78 384.383V574.298H1753.23V574.208Z" fill="#F9F5EB"/>
<path d="M2380.66 583.284C2358.18 583.284 2337.87 579.267 2319.73 571.279C2301.59 563.29 2287.19 551.737 2276.63 536.618C2266.02 521.499 2260.74 502.904 2260.74 480.88C2260.74 459.261 2266.02 441.119 2276.63 426.451C2287.19 411.783 2301.81 400.635 2320.36 393.053C2338.96 385.516 2360.12 381.725 2383.86 381.725H2476.56V362.273C2476.56 345.439 2471.37 331.719 2460.99 321.113C2450.61 310.552 2434.41 305.227 2412.39 305.227C2390.77 305.227 2374.48 310.327 2363.46 320.481C2352.45 330.636 2345.19 343.724 2341.76 359.701L2273.07 337C2278.26 320.165 2286.56 304.821 2298.02 290.965C2309.49 277.155 2324.7 266.007 2343.7 257.568C2362.7 249.128 2386.03 244.931 2413.7 244.931C2455.62 244.931 2488.57 255.401 2512.53 276.388C2536.5 297.374 2548.5 327.703 2548.5 367.464V493.201C2548.5 506.154 2554.55 512.653 2566.65 512.653H2593.86V574.212H2541.37C2525.8 574.212 2513.08 570.331 2503.15 562.569C2493.22 554.806 2488.25 544.2 2488.25 530.796V529.487H2477.24C2474.67 535.534 2470.11 542.891 2463.61 551.511C2457.11 560.176 2447.27 567.623 2434.14 573.852C2420.96 580.17 2403.13 583.284 2380.66 583.284ZM2392.98 522.356C2417.62 522.356 2437.71 515.36 2453.28 501.279C2468.85 487.243 2476.61 468.333 2476.61 444.549V438.05H2388.47C2372.49 438.05 2359.49 441.525 2349.56 448.43C2339.63 455.335 2334.67 465.49 2334.67 478.894C2334.67 491.847 2339.86 502.362 2350.24 510.351C2360.58 518.384 2374.84 522.356 2392.98 522.356Z" fill="#F9F5EB"/>
<path d="M2753.35 583.284C2727.44 583.284 2703.21 576.92 2680.78 564.148C2658.3 551.421 2640.38 532.691 2626.98 508.094C2613.58 483.452 2606.9 453.891 2606.9 419.32V408.939C2606.9 374.369 2613.58 344.762 2626.98 320.165C2640.38 295.523 2658.21 276.839 2680.46 264.111C2702.71 251.384 2727.04 244.976 2753.39 244.976C2773.25 244.976 2790.13 247.368 2803.94 252.106C2817.75 256.845 2828.9 262.893 2837.34 270.249C2845.78 277.606 2852.37 285.594 2857.11 294.214H2868.12V120.502H2942V574.212H2869.43V532.104H2858.42C2850.65 545.057 2838.74 556.836 2822.76 567.442C2806.7 578.003 2783.59 583.284 2753.35 583.284ZM2775.37 518.474C2802.18 518.474 2824.43 509.719 2842.12 492.207C2859.82 474.696 2868.71 449.739 2868.71 417.334V410.835C2868.71 378.024 2859.95 352.931 2842.44 335.645C2824.93 318.36 2802.59 309.74 2775.37 309.74C2748.57 309.74 2726.23 318.405 2708.31 335.645C2690.39 352.931 2681.41 377.979 2681.41 410.835V417.334C2681.41 449.739 2690.39 474.696 2708.31 492.207C2726.23 509.719 2748.57 518.474 2775.37 518.474Z" fill="#F9F5EB"/>
<path d="M3047.61 213.201C3034.21 213.201 3022.66 208.778 3012.95 199.933C3003.25 191.087 2998.38 179.307 2998.38 164.594C2998.38 149.927 3003.25 138.147 3012.95 129.256C3022.66 120.41 3034.21 115.987 3047.61 115.987C3061.88 115.987 3073.65 120.41 3082.95 129.256C3092.25 138.102 3096.9 149.881 3096.9 164.594C3096.9 179.307 3092.25 191.087 3082.95 199.933C3073.61 208.778 3061.88 213.201 3047.61 213.201ZM3010.65 574.211V254.046H3085.21V574.211H3010.65Z" fill="#F9F5EB"/>
<path d="M3303.59 583.28C3272.5 583.28 3244.38 576.78 3219.33 563.827C3194.28 550.875 3174.52 532.055 3160.03 507.458C3145.54 482.816 3138.32 453.255 3138.32 418.684V409.612C3138.32 375.041 3145.54 345.435 3160.03 320.838C3174.52 296.196 3194.28 277.421 3219.33 264.468C3244.38 251.516 3272.5 245.017 3303.59 245.017C3334.28 245.017 3360.5 250.432 3382.35 261.219C3404.15 272.005 3421.79 286.809 3435.15 305.629C3448.56 324.449 3457.18 345.48 3461.06 368.813L3389.12 383.707C3387.4 370.302 3383.3 358.117 3376.8 347.105C3370.3 336.093 3361.14 327.337 3349.27 320.838C3337.4 314.339 3322.77 311.135 3305.53 311.135C3287.8 311.135 3271.91 314.926 3257.87 322.463C3243.84 330.045 3232.83 341.373 3224.84 356.492C3216.85 371.611 3212.83 389.754 3212.83 410.921V417.42C3212.83 438.587 3216.8 456.64 3224.84 471.533C3232.83 486.427 3243.84 497.8 3257.87 505.563C3271.91 513.325 3287.8 517.207 3305.53 517.207C3331.89 517.207 3351.88 510.392 3365.47 496.807C3379.1 483.177 3387.63 465.576 3391.06 444.003L3463 460.837C3457.81 483.313 3448.51 503.848 3435.11 522.397C3421.7 540.991 3404.1 555.794 3382.3 566.806C3360.5 577.773 3334.28 583.28 3303.59 583.28Z" fill="#F9F5EB"/>
<path d="M414.31 645.881H413.678L300.217 415.032L167.755 414.626L167.078 699.272H241.952V489.184H252.557L356.045 699.272H489.183V609.008L414.536 531.743L414.31 645.881ZM699.272 343.227V210.088H609.46L532.194 284.736L645.836 284.962V285.594L415.032 399.055L414.626 531.743H507.597V532.194H699.272V457.275H489.183V446.714L699.272 343.227ZM457.275 0V210.088H446.715L343.182 0H210.089V90.0829L284.736 167.349L284.962 53.3907H285.594L399.055 284.24L532.194 284.646V0H457.275ZM0 167.078V241.997H210.089V252.557L0 356.045V489.184H90.4892L167.755 414.535L53.3907 414.31V413.678L284.24 300.217L284.646 167.349L0 167.078Z" fill="#F9F5EB"/>
</svg>
