<svg width="155" height="155" viewBox="0 0 155 155" fill="none" xmlns="http://www.w3.org/2000/svg">
<path d="M91.8 143.11H91.66L66.52 91.96L37.17 91.87L37.02 154.94H53.61V108.39H55.96L78.89 154.94H108.39V134.94L91.85 117.82L91.8 143.11ZM154.94 76.05V46.55H135.04L117.92 63.09L143.1 63.14V63.28L91.96 88.42L91.87 117.82H112.47V117.92H154.94V101.32H108.39V98.98L154.94 76.05ZM101.32 0V46.55H98.98L76.04 0H46.55V19.96L63.09 37.08L63.14 11.83H63.28L88.42 62.98L117.92 63.0699V0H101.32ZM0 37.02V53.62H46.55V55.96L0 78.89V108.39H20.05L37.17 91.85L11.83 91.8V91.66L62.98 66.52L63.0699 37.08L0 37.02Z" fill="#1F2753"/>
</svg>
